# xmcd
#
# Track frame offsets:
#	150
#	14822
#	28954
#	42757
#	54162
#	72488
#	101118
#	116553
#	129750
#	152048
#	164160
#	178114
#	192881
#	205210
#	217861
#	230731
#	242923
#	258320
#	275461
#	288002
#	303809
#
# Disc length: 4216 seconds
#
# Revision: 0
# Processed by: cddbd v1.5.1PL2 Copyright (c) Steve Scherf et al.
# Submitted via: audiograbber 1.83.01
#
DISCID=32107615
DTITLE=Gordon Lightfoot - Greatest Hit´s CD2
DYEAR=1900
DGENRE=Country
TTITLE0=Afternoon Delight
TTITLE1=Betty Called Me In
TTITLE2=Blackberry Wine
TTITLE3=Boss Man [live]
TTITLE4=Broken Dreams
TTITLE5=25 Canadian Railroad Trilogy  
TTITLE6=Cotton Jenny
TTITLE7=Dreamland
TTITLE8=Dreams Go By
TTITLE9=Go Go Round
TTITLE10=Im Not Saying Ribbon Of Darkness
TTITLE11=Ordinary Man
TTITLE12=Pride Of Man
TTITLE13=Rainyday People
TTITLE14=Redwood Hill
TTITLE15=Rosana
TTITLE16=Sit Down Young Stranger       
TTITLE17=The Auctioneer
TTITLE18=The Gypsy
TTITLE19=The Pony Man
TTITLE20=Wherefore and Why
EXTD=
EXTT0=
EXTT1=
EXTT2=
EXTT3=
EXTT4=
EXTT5=
EXTT6=
EXTT7=
EXTT8=
EXTT9=
EXTT10=
EXTT11=
EXTT12=
EXTT13=
EXTT14=
EXTT15=
EXTT16=
EXTT17=
EXTT18=
EXTT19=
EXTT20=
PLAYORDER=
